<svg width="32" height="32" fill="none" xmlns="http://www.w3.org/2000/svg"><path d="M15.597 31.485c-1.524.172-2.634-.407-3.418-1.693-.61-1.007-1.437-1.843-2.526-2.379-1.567-.77-2.46-.707-3.766.472-.675.621-1.132.064-1.502-.279-2.003-1.778-3.136-4.007-3.31-6.664-.087-1.479.11-2.936.414-4.393.218-1.029.218-2.079-.283-3-1.48-2.722-.653-5.1 1.088-7.308.98-1.243 2.156-2.7 3.724-2.657 1.589.043 2.373-.75 3.44-1.479 1.262-.857 2.656-1.671 4.267-.686.392.236.566-.085.806-.257 1.85-1.286 3.831-1.479 5.921-.707.784.279 1.568.493 2.374.471 1.154-.021 1.85.536 2.308 1.522.783 1.714 1.328 3.514 1.48 5.4.109 1.457.653 2.293 2.22 2.765 1.568.471 2.418 1.907 3.07 3.343.284.643-.108 1.243-.587 1.671-1.002.9-1.372 1.972-1.546 3.279-.218 1.564-.675 3.15-2.09 4.222-.457.343-.632.857-.74 1.392-1.046 5.936-3.92 6.537-7.99 6.73-1.786 0-2.918.128-3.354.235zm-4.05-20.765c-1.894-.45-3.004.728-4.049 1.95-.87 1.007-.065 5.807 1.045 6.493.044.021.087.064.109.064 2.025.107 2.809 1.779 3.919 3.043.762.879 1.633 1.458 2.896 1.629 2.068.257 3.962-.321 5.856-.879a2.867 2.867 0 001.133-.664c1.262-1.35 1.654-3.193 2.373-4.8.435-.943-.022-2.722-.762-3.858-1.024-1.585-2.2-3.064-3.462-4.457-1.568-1.714-4.594-1.693-5.748 0-.936 1.2-1.938 1.715-3.31 1.479z" fill="red"/><path d="M11.46 10.634c1.46.236 2.483-.279 3.332-1.522 1.175-1.736 4.267-1.757 5.856 0a37.521 37.521 0 013.527 4.543c.762 1.158 1.22 2.958.784 3.922-.74 1.629-1.154 3.514-2.416 4.886-.284.321-.719.557-1.154.686-1.938.578-3.854 1.157-5.966.9-1.306-.172-2.177-.75-2.96-1.65-1.133-1.286-1.917-3-3.985-3.108-.044 0-.087-.043-.11-.064-1.131-.707-1.959-5.593-1.066-6.622 1.045-1.221 2.199-2.421 4.159-1.971zm3.201 3.3c-.631.064-1.263.086-1.872.236-.501.128-1.089.664-.697 1.028.936.879 1.154 2.207 2.134 3.022 1.197.964 2.286.814 2.873-.429.501-1.093.284-2.143-.282-3.171-.523-.922-1.329-.707-2.156-.686z" fill="#000"/></svg>