<?xml version="1.0" encoding="iso-8859-1"?>
<!-- Generator: Adobe Illustrator 19.0.0, SVG Export Plug-In . SVG Version: 6.00 Build 0)  -->
<svg version="1.1" id="Layer_1" xmlns="http://www.w3.org/2000/svg" xmlns:xlink="http://www.w3.org/1999/xlink" x="0px" y="0px"
	 viewBox="0 0 512 512" style="enable-background:new 0 0 512 512;" xml:space="preserve">
<g>
	<g>
		<path d="M33.391,258.668V512h33.391V277.32C54.874,272.42,43.677,266.136,33.391,258.668z"/>
	</g>
</g>
<g>
	<g>
		<path d="M384,0c-67.191,0-99.909,45.528-128,45.528S195.191,0,128,0C57.307,0,0,57.307,0,128s57.307,128,128,128
			c67.191,0,99.909-45.528,128-45.528S316.809,256,384,256c70.693,0,128-57.307,128-128S454.693,0,384,0z M128,156.621
			c-25.4,0-48.228-11.173-64-28.939c15.772-17.766,38.6-28.939,64-28.939s48.228,11.173,64,28.939
			C176.228,145.449,153.4,156.621,128,156.621z M384,157.257c-25.679,0-48.758-11.295-64.703-29.257
			c15.945-17.962,39.024-29.257,64.703-29.257s48.758,11.295,64.703,29.257C432.758,145.962,409.679,157.257,384,157.257z"/>
	</g>
</g>
<g>
</g>
<g>
</g>
<g>
</g>
<g>
</g>
<g>
</g>
<g>
</g>
<g>
</g>
<g>
</g>
<g>
</g>
<g>
</g>
<g>
</g>
<g>
</g>
<g>
</g>
<g>
</g>
<g>
</g>
</svg>
