<svg width="276" height="53" fill="none" xmlns="http://www.w3.org/2000/svg"><path d="M75.605 43.527V51.3c.394.123.964.184 1.71.184.82 0 1.495-.204 2.026-.61.53-.408.914-.935 1.153-1.586.24-.649.359-1.346.359-2.089 0-.792-.167-1.479-.5-2.057a3.324 3.324 0 00-1.372-1.323c-.583-.303-1.236-.452-1.963-.452-.528 0-1 .052-1.413.159zm-2.762-.663h4.063c1.068 0 1.967.139 2.696.417.73.28 1.3.643 1.709 1.091.41.448.7.927.87 1.439.17.512.255 1.028.255 1.548 0 .71-.128 1.352-.386 1.926a4.143 4.143 0 01-1.076 1.462c-.461.4-.998.705-1.61.914a5.964 5.964 0 01-1.954.315h-4.567v-.17h.219c.73 0 1.095-.309 1.095-.925v-6.926c0-.24-.064-.454-.192-.64-.129-.187-.429-.28-.903-.28h-.22v-.171M90.05 45.037l-1.485 3.4h2.983l-1.499-3.4zm-4.286 6.939v-.17c.252-.033.468-.145.645-.34.178-.194.357-.494.534-.902l3.463-7.824h.123l3.476 7.824c.144.327.265.567.364.723.1.156.22.273.361.353.142.081.347.136.615.165v.171h-3.65v-.17c.616-.1.924-.286.924-.555 0-.199-.033-.371-.098-.518l-.762-1.744H88.33l-.75 1.732c-.008.023-.028.071-.061.147a.75.75 0 00-.085.359c0 .2.095.346.286.44.191.092.407.138.646.138v.171h-2.603M100.91 42.864l5.662 6.656v-5.565c0-.614-.363-.92-1.091-.92h-.222v-.171h3.218v.17h-.234c-.728 0-1.092.307-1.092.92V52.1h-.174l-6.399-7.432v6.213c0 .335.093.572.279.714.186.14.458.21.815.21h.222v.171h-3.22v-.17h.233c.728 0 1.092-.309 1.092-.925v-6.914a2.839 2.839 0 00-.791-.698 1.94 1.94 0 00-.963-.234v-.171h2.665M120.576 42.812l.147 2.9-.171.024a3.612 3.612 0 00-.49-1.17 2.858 2.858 0 00-.994-.938c-.424-.248-.937-.372-1.539-.372-.639 0-1.214.159-1.724.475-.51.314-.911.781-1.202 1.398-.292.616-.438 1.352-.438 2.206 0 .857.152 1.594.457 2.21.306.615.726 1.08 1.263 1.395.536.316 1.147.472 1.83.472 1.152 0 2.179-.544 3.083-1.633l.282.257c-.562.775-1.159 1.312-1.791 1.612a4.493 4.493 0 01-1.953.452 4.787 4.787 0 01-2.391-.616 4.576 4.576 0 01-1.728-1.703 4.679 4.679 0 01-.635-2.41c0-.666.122-1.283.367-1.852a4.398 4.398 0 011.036-1.482 4.68 4.68 0 011.554-.962 5.27 5.27 0 011.881-.335c.469 0 .832.035 1.089.103.257.068.528.16.816.276.286.116.51.173.672.173.246 0 .39-.16.432-.48h.147M132.034 42.864l.111 1.892-.186.024c-.13-.543-.318-.895-.565-1.057-.247-.163-.59-.244-1.03-.244h-2.507v3.412h2.336c.192 0 .359-.027.499-.079.141-.053.263-.18.366-.38.102-.2.154-.497.154-.89h.171v3.178h-.171c-.011-.356-.065-.628-.16-.816-.095-.187-.213-.312-.357-.372a1.29 1.29 0 00-.502-.09h-2.336v3.92h2.507c.642 0 1.144-.123 1.506-.371.364-.247.656-.692.878-1.336l.159.048-.663 2.273h-7.149v-.17h.219c.729 0 1.095-.309 1.095-.925v-6.926c0-.24-.064-.454-.192-.64-.128-.187-.43-.28-.903-.28h-.219v-.171h6.939M149.723 42.74v2.936h-.174a2.501 2.501 0 00-.344-1.195 2.474 2.474 0 00-.852-.884 2.127 2.127 0 00-1.137-.329c-.281 0-.535.057-.759.175a1.34 1.34 0 00-.524.464 1.11 1.11 0 00-.189.614c0 .25.071.484.215.703.142.217.326.416.554.593.227.178.491.354.791.528l.845.486c.482.285.879.573 1.192.862.312.288.548.606.708.951.159.344.238.73.238 1.159 0 .497-.142.92-.424 1.265a2.57 2.57 0 01-1.095.775 3.811 3.811 0 01-1.38.257c-.283 0-.513-.025-.695-.072a9.118 9.118 0 01-.672-.215 3.06 3.06 0 00-.621-.169h-.209c-.246.044-.392.196-.44.456h-.174l.015-3.083h.171c.11.694.377 1.287.8 1.779.424.493.974.74 1.654.74.494 0 .908-.12 1.243-.359.335-.238.501-.574.501-1.005 0-.363-.098-.687-.293-.972a2.884 2.884 0 00-.72-.73 12.766 12.766 0 00-1.099-.682c-.481-.272-.88-.525-1.194-.761a3.036 3.036 0 01-.78-.847 2.08 2.08 0 01-.31-1.13c0-.454.12-.858.358-1.209.237-.352.558-.624.962-.814.406-.191.846-.287 1.32-.287.316 0 .576.028.78.081.204.055.42.126.65.215.23.09.396.133.498.133a.39.39 0 00.282-.125.582.582 0 00.161-.304h.147M154.416 42.864h7.764l.108 2.063h-.172a1.624 1.624 0 00-.405-1.032c-.25-.278-.662-.416-1.24-.416h-1.448v7.402c0 .616.362.924 1.09.924h.222v.171h-4.078v-.17h.222c.358 0 .63-.071.816-.211.186-.142.278-.379.278-.714V43.48h-1.45c-.579 0-.991.137-1.238.413-.246.276-.382.621-.409 1.035h-.171l.111-2.063M165.961 42.864h4.09v.17h-.222c-.357 0-.629.071-.813.211-.187.142-.277.378-.277.71v4.804c0 .424.048.83.145 1.217.099.388.341.739.731 1.052.389.312.972.468 1.749.468.604 0 1.092-.112 1.461-.337.37-.224.639-.499.807-.823.168-.324.272-.627.313-.908a5.4 5.4 0 00.062-.792v-4.681c0-.24-.064-.454-.192-.64-.128-.187-.43-.28-.903-.28h-.219v-.171h3.23v.17h-.223c-.469 0-.768.09-.897.267-.13.178-.194.396-.194.654v4.926c0 .728-.153 1.334-.458 1.819a2.71 2.71 0 01-1.228 1.064 4.207 4.207 0 01-1.704.336 6.368 6.368 0 01-1.755-.25c-.584-.167-1.093-.5-1.525-1-.434-.5-.65-1.206-.65-2.115v-4.78c0-.614-.364-.92-1.093-.92h-.235v-.171M182.616 43.527V51.3c.395.123.964.184 1.711.184.818 0 1.494-.204 2.025-.61a3.459 3.459 0 001.153-1.586c.239-.649.358-1.346.358-2.089 0-.792-.166-1.479-.499-2.057a3.325 3.325 0 00-1.372-1.323c-.583-.303-1.237-.452-1.964-.452-.527 0-.999.052-1.412.159zm-2.761-.663h4.062c1.068 0 1.966.139 2.696.417.73.28 1.299.643 1.71 1.091.409.448.698.927.869 1.439.169.512.255 1.028.255 1.548 0 .71-.128 1.352-.386 1.926a4.149 4.149 0 01-1.076 1.462c-.461.4-.998.705-1.61.914a5.963 5.963 0 01-1.954.315h-4.566v-.17h.218c.728 0 1.094-.309 1.094-.925v-6.926c0-.24-.063-.454-.192-.64-.128-.187-.428-.28-.902-.28h-.218v-.171M193.636 42.864h4.089v.17h-.221c-.432 0-.724.085-.877.253-.154.168-.23.39-.23.668v6.926c0 .28.076.504.23.672.153.168.445.252.877.252h.221v.171h-4.089v-.17h.219c.729 0 1.094-.309 1.094-.925v-6.926c0-.24-.064-.454-.192-.64-.128-.187-.429-.28-.902-.28h-.219v-.171zM206.225 51.572c.367 0 .719-.083 1.056-.248.339-.165.642-.416.91-.752.268-.337.48-.767.637-1.288.157-.521.236-1.128.236-1.815 0-.756-.084-1.408-.252-1.956-.168-.549-.387-.986-.656-1.312-.269-.326-.561-.564-.879-.712a2.227 2.227 0 00-.941-.221 2.4 2.4 0 00-1.376.445c-.435.298-.787.755-1.056 1.374-.271.618-.405 1.38-.405 2.284 0 .616.064 1.181.193 1.7.129.518.315.965.557 1.34.244.376.532.664.868.862.335.199.704.299 1.108.299zm-.074.528c-.811 0-1.54-.213-2.187-.639a4.32 4.32 0 01-1.509-1.728 5.216 5.216 0 01-.54-2.35c0-.74.132-1.404.394-1.994a4.297 4.297 0 011.052-1.47 4.547 4.547 0 011.455-.883 4.544 4.544 0 011.596-.296c.813 0 1.543.208 2.189.623.647.414 1.15.984 1.508 1.708a5.3 5.3 0 01.539 2.386c0 .684-.117 1.312-.348 1.888a4.307 4.307 0 01-2.417 2.426c-.543.218-1.12.329-1.732.329" fill="#231F20"/><path d="M245.868 14.824c-.668-1.492-1.536-2.983-3.139-3.473-1.602-.49-2.16-1.358-2.272-2.871-.156-1.96-.712-3.83-1.513-5.61-.468-1.025-1.18-1.603-2.36-1.58-.823.02-1.624-.202-2.425-.491-.832-.311-1.648-.472-2.444-.472h-.016c-1.244.002-2.446.394-3.596 1.206-.246.179-.423.512-.824.268-1.647-1.024-3.072-.178-4.363.712-1.091.756-1.893 1.582-3.517 1.536-1.603-.044-2.806 1.47-3.808 2.762-1.78 2.292-2.626 4.762-1.112 7.59.512.958.512 2.048.289 3.116-.312 1.515-.512 3.028-.423 4.564.178 2.762 1.335 5.076 3.383 6.924.379.356.847.935 1.537.29 1.335-1.224 2.248-1.292 3.851-.49 1.113.556 1.959 1.424 2.583 2.47.801 1.337 1.936 1.937 3.494 1.76.446-.111 1.603-.246 3.428-.246 4.164-.2 7.102-.824 8.171-6.99.112-.556.289-1.09.757-1.447 1.447-1.112 1.915-2.76 2.138-4.385.177-1.359.556-2.471 1.58-3.406.489-.445.89-1.069.601-1.737" fill="#ED1C24"/><path d="M237.965 14.512a38.767 38.767 0 00-3.608-4.72 3.55 3.55 0 00-.448-.42c-1.47-1.195-3.71-1.244-5.004-.173-.204.17-.385.368-.536.593-.162.241-.33.457-.508.645-.768.819-1.685 1.135-2.897.935a3.927 3.927 0 00-.715-.099 3.24 3.24 0 00-.38.012c-.196.016-.385.05-.564.099a3.35 3.35 0 00-.449.17c-.036.015-.073.03-.109.047a3.79 3.79 0 00-.51.308 5.605 5.605 0 00-.665.566c-.009.009-.019.016-.027.025-.293.288-.566.603-.833.92-.913 1.07-.067 6.145 1.091 6.879.022.024.066.068.11.068.75.04 1.332.29 1.827.654.12.09.239.186.351.287.266.245.509.523.74.813.389.486.752 1.007 1.157 1.474.801.934 1.692 1.534 3.028 1.713 1.889.235 3.625-.197 5.357-.71l.742-.225c.16-.048.32-.11.472-.186l.021-.01.013-.008a2.22 2.22 0 00.674-.508c.969-1.07 1.449-2.438 1.948-3.77.082-.222.166-.442.252-.66.086-.218.177-.435.272-.646.445-1.001-.023-2.872-.802-4.073" fill="#231F20"/><path d="M228.236 14.8c.845-.021 1.671-.244 2.204.713.579 1.068.801 2.159.289 3.295-.6 1.292-1.713 1.447-2.938.445-1.002-.846-1.224-2.226-2.182-3.138-.4-.379.2-.935.712-1.07.624-.156 1.27-.177 1.915-.245zm0 0c.845-.021 1.671-.244 2.204.713.579 1.068.801 2.159.289 3.295-.6 1.292-1.713 1.447-2.938.445-1.002-.846-1.224-2.226-2.182-3.138-.4-.379.2-.935.712-1.07.624-.156 1.27-.177 1.915-.245z" fill="#fff"/><path d="M57.989 4.208v24.32c1.232.381 3.015.572 5.348.572 2.566 0 4.677-.636 6.335-1.91 1.658-1.271 2.86-2.923 3.608-4.955.748-2.032 1.122-4.212 1.122-6.538 0-2.476-.521-4.621-1.563-6.433-1.042-1.813-2.473-3.192-4.293-4.136-1.821-.944-3.866-1.417-6.138-1.417-1.65 0-3.125.166-4.419.497zM49.35 2.135h12.708c3.34 0 6.15.437 8.433 1.309 2.282.872 4.064 2.008 5.346 3.41 1.28 1.4 2.188 2.9 2.72 4.5.531 1.602.796 3.215.796 4.84 0 2.22-.401 4.229-1.204 6.026-.804 1.797-1.926 3.323-3.367 4.573-1.441 1.251-3.12 2.203-5.037 2.86-1.917.656-3.953.986-6.11.986H49.35v-.535h.686c2.282 0 3.422-.963 3.422-2.89V5.55c0-.75-.2-1.418-.6-2.002-.4-.586-1.341-.878-2.822-.878h-.686v-.534M106.211 29.372a7.44 7.44 0 003.303-.773c1.057-.516 2.005-1.302 2.843-2.355.839-1.053 1.503-2.396 1.995-4.028.491-1.632.737-3.524.737-5.675 0-2.362-.264-4.404-.789-6.12-.525-1.716-1.208-3.084-2.05-4.102-.843-1.02-1.758-1.76-2.75-2.223-.992-.464-1.972-.695-2.942-.695-1.513 0-2.95.464-4.307 1.394-1.358.928-2.459 2.36-3.303 4.294-.845 1.936-1.267 4.318-1.267 7.143 0 1.925.2 3.699.605 5.317.404 1.62.985 3.018 1.746 4.194.76 1.174 1.663 2.074 2.711 2.696 1.048.622 2.204.933 3.468.933zm-.234 1.65c-2.538 0-4.818-.666-6.84-1.997-2.022-1.332-3.595-3.133-4.721-5.402-1.124-2.271-1.687-4.722-1.687-7.354 0-2.313.411-4.39 1.233-6.232.821-1.841 1.919-3.374 3.29-4.601a14.231 14.231 0 014.548-2.761c1.66-.616 3.325-.924 4.993-.924 2.543 0 4.826.649 6.849 1.946 2.022 1.298 3.593 3.078 4.715 5.342 1.123 2.262 1.684 4.752 1.684 7.465 0 2.139-.363 4.107-1.088 5.904-.725 1.797-1.742 3.34-3.047 4.63a13.635 13.635 0 01-4.51 2.958c-1.7.685-3.507 1.027-5.419 1.027M141.819 3.936v11.603c.386.024.977.036 1.77.036 1.738 0 3.167-.287 4.292-.863 1.124-.575 1.944-1.33 2.459-2.264a6.14 6.14 0 00.773-3.016c0-1.013-.225-1.97-.674-2.875-.45-.902-1.158-1.636-2.123-2.2-.964-.562-2.156-.842-3.573-.842a10.1 10.1 0 00-2.924.42zm-8.677-1.801h12.982c2.551 0 4.795.444 6.733 1.332 1.939.888 2.908 2.852 2.908 5.89 0 1.382-.32 2.598-.958 3.644a7.365 7.365 0 01-2.499 2.504 9.76 9.76 0 01-3.352 1.262l7.809 10.026c.9 1.144 1.702 1.971 2.403 2.48.7.51 1.617.787 2.749.831v.535h-7.806l-9.828-13.451h-2.464v10.027c0 1.926 1.14 2.889 3.42 2.889h.693v.535h-12.79v-.535h.686c1.356 0 2.272-.263 2.748-.788.475-.525.712-1.225.712-2.101V5.512c0-.813-.231-1.49-.695-2.03-.461-.542-1.384-.813-2.765-.813h-.686v-.534M179.588 2.135l17.708 20.822V5.55c0-1.92-1.137-2.88-3.413-2.88h-.695v-.534h10.063v.534h-.731c-2.276 0-3.415.96-3.415 2.88v25.474h-.544L178.547 7.78v19.434c0 1.044.29 1.786.872 2.228.582.44 1.433.661 2.552.661h.693v.535h-10.073v-.535h.73c2.278 0 3.416-.963 3.416-2.89V5.588c-.781-.963-1.605-1.69-2.477-2.18-.871-.491-1.875-.738-3.011-.738v-.534h8.339zM273.716 1.75v9.183h-.544a7.89 7.89 0 00-1.073-3.738 7.8 7.8 0 00-2.67-2.767c-1.106-.684-2.292-1.027-3.554-1.027-.882 0-1.672.182-2.374.544-.7.363-1.246.848-1.641 1.454-.393.606-.589 1.248-.589 1.924 0 .78.222 1.512.669 2.194a7.78 7.78 0 001.736 1.856 21.1 21.1 0 002.476 1.651c.941.544 1.821 1.05 2.64 1.52 1.507.893 2.749 1.793 3.728 2.696.979.904 1.716 1.895 2.213 2.973.498 1.079.746 2.287.746 3.626 0 1.557-.442 2.876-1.327 3.957-.884 1.083-2.025 1.89-3.423 2.425a11.984 11.984 0 01-4.318.802c-.882 0-1.604-.075-2.171-.226a27.69 27.69 0 01-2.105-.67c-.838-.298-1.484-.474-1.942-.53h-.653c-.768.138-1.227.614-1.376 1.426h-.543l.047-9.643h.533c.344 2.17 1.178 4.027 2.503 5.568 1.324 1.541 3.049 2.312 5.175 2.312 1.542 0 2.837-.375 3.885-1.121 1.045-.747 1.569-1.796 1.569-3.147 0-1.132-.306-2.144-.918-3.039a9.016 9.016 0 00-2.25-2.284c-.886-.628-2.033-1.34-3.44-2.133-1.505-.85-2.75-1.643-3.734-2.379a9.65 9.65 0 01-2.442-2.649c-.644-1.03-.965-2.21-.965-3.535 0-1.42.372-2.68 1.116-3.78.743-1.101 1.747-1.95 3.013-2.546 1.266-.598 2.642-.896 4.128-.896.988 0 1.8.084 2.438.253.637.17 1.316.392 2.034.67.719.28 1.238.418 1.556.418.324 0 .619-.13.88-.395a1.82 1.82 0 00.507-.946h.46M37.279 29.588c-.444-.25-.82-.62-1.13-1.107-.31-.488-.69-1.241-1.14-2.26L24.14 1.751h-.384l-6.683 15.096c.8-.112 1.663-.14 2.196-.147l3.37-7.765L29.34 24.38c-1.149-1.782-2.968-3.745-5.835-5.17-3.348-1.51-6.702-.886-10.036.236-3.278 1.101-6.576 2.132-10.104 1.468-1.065-.2-2.108-.518-3.364-.832 2.582 2.437 5.256 4.309 8.646 4.702l.005.007s.858.133 1.586.097c.004 0 .01-.004.015-.004.795-.013 2.008-.133 3.504-.548l-.834 1.884c-.556 1.275-1.113 2.216-1.67 2.823-.557.607-1.228.96-2.017 1.06v.535h8.142v-.536c-.75 0-1.424-.146-2.022-.436-.596-.291-.895-.75-.895-1.376 0-.2.019-.38.056-.535.038-.156.107-.352.211-.587a8.27 8.27 0 00.192-.456l1.433-3.3c.355-.136 1.055-.397 1.6-.541a.576.576 0 01.048-.013c.052-.014.099-.023.146-.035.724-.16 1.616-.299 2.646-.333.015 0 .027-.002.042-.003l.039-.001.018.002c2.195-.097 4.276.53 6.216 1.863 1.035.712 1.897 1.573 2.669 2.513.556.754 1.178 1.924.244 2.522-.022.013-.036.028-.057.04l-.014.009c-.48.288-1.2.51-2.161.667v.536h11.415v-.535c-.839-.093-1.48-.267-1.924-.516" fill="#231F20"/></svg>