<svg width="177" height="37" viewBox="0 0 177 37" fill="none" xmlns="http://www.w3.org/2000/svg">
<g clip-path="url(#clip0)">
<path fill-rule="evenodd" clip-rule="evenodd" d="M2.08716 30.5696L12.3808 4.18164H16.643L26.9598 30.5696H23.314L21.0584 24.7386H8.04691L5.71688 30.5696H2.08716ZM19.7679 21.382L14.5364 8.16027L9.30498 21.382H19.7679Z" fill="black"/>
<path fill-rule="evenodd" clip-rule="evenodd" d="M49.8406 28.2395C50.082 28.0482 50.3203 27.8435 50.5554 27.6255C51.166 27.0592 51.7136 26.4113 52.1967 25.6788C51.8918 25.4807 51.5941 25.265 51.3039 25.0318C50.5916 24.4675 49.9806 23.8419 49.4706 23.1584C48.8703 24.2647 48.0982 25.1498 47.1813 25.788C47.4116 26.0583 47.6539 26.3242 47.9083 26.5855C48.5192 27.2074 49.1629 27.7588 49.8406 28.2395ZM44.57 8.10411C43.1969 7.68372 41.6022 7.48944 39.8201 7.48944H37.0662V27.213H40.539C42.5237 27.213 44.1768 27.0354 45.4348 26.6399C45.7826 27.0723 46.1564 27.4939 46.5563 27.9046L46.5591 27.9075C47.068 28.4257 47.5978 28.9008 48.1483 29.3327C47.6807 29.5695 47.2043 29.7589 46.7203 29.8994L46.7069 29.9035C45.3447 30.3212 42.8712 30.5452 39.1509 30.5452H33.5266V4.18164H39.0517C42.5466 4.18164 45.1909 4.55038 47.0142 5.2235C46.0876 6.07715 45.2743 7.03869 44.57 8.10411ZM46.3489 8.84641C46.9218 9.16255 47.4364 9.53766 47.8886 9.97561C48.2998 10.3744 48.6642 10.8051 48.9833 11.2665C49.4061 10.5582 49.9209 9.89707 50.5274 9.28376L50.5319 9.27919L50.5319 9.2792C50.8086 9.00324 51.0938 8.74639 51.3875 8.5086C50.6242 7.53831 49.7734 6.75255 48.8336 6.14163C47.8847 6.92648 47.0591 7.82844 46.3489 8.84641ZM52.4523 10.0787C52.253 10.2462 52.0584 10.4246 51.8682 10.6142C51.0684 11.4235 50.4609 12.3324 50.0507 13.355C50.5086 14.626 50.7292 16.0562 50.7292 17.6318C50.7292 18.8425 50.6027 19.9628 50.3338 20.9884C50.8406 21.9696 51.5564 22.8226 52.4792 23.5532L52.4848 23.5576L52.4848 23.5576C52.69 23.7226 52.8996 23.877 53.1134 24.0206C53.2021 23.828 53.2875 23.631 53.3694 23.4295C54.0408 21.7186 54.3927 19.8376 54.3927 17.7782C54.3927 14.8698 53.7556 12.3523 52.5346 10.2208C52.5073 10.1731 52.4798 10.1258 52.4523 10.0787Z" fill="black"/>
<path fill-rule="evenodd" clip-rule="evenodd" d="M45.7431 9.78981C46.9989 7.66238 48.6883 5.97792 50.8687 4.74461C53.0839 3.50561 55.4036 2.88965 57.966 2.88965C61.78 2.88965 65.0364 4.22928 67.7857 6.95827C70.5307 9.683 71.894 12.9544 71.894 16.8765C71.894 20.7525 70.5538 23.9971 67.8381 26.67L67.8353 26.6729C65.1396 29.349 61.8602 30.6926 57.9907 30.6926C53.9192 30.6926 50.5971 29.3223 47.9083 26.5853C45.2271 23.831 43.8892 20.5777 43.8892 16.779C43.8892 14.2357 44.5152 11.9118 45.7431 9.78981ZM57.9164 6.27064C55.0226 6.27064 52.5492 7.26661 50.532 9.27899L50.5319 9.27897L50.5274 9.28354C48.5303 11.3031 47.5279 13.841 47.5279 16.8765C47.5279 20.2596 48.7786 23.031 51.3039 25.0316C53.2357 26.5839 55.5023 27.3605 57.9907 27.3605C60.8457 27.3605 63.2936 26.3324 65.2804 24.3233C67.3005 22.2813 68.2801 19.7687 68.2801 16.8277C68.2801 13.9059 67.2722 11.3707 65.2557 9.33221C63.2434 7.29813 60.7706 6.27064 57.9164 6.27064Z" fill="black"/>
<path fill-rule="evenodd" clip-rule="evenodd" d="M89.4377 30.5452L83.3493 19.2717V15.2338H83.6194C85.3631 15.2338 86.8186 15.027 87.7484 14.3846C88.7225 13.7192 89.1496 12.6208 89.1496 11.3616C89.1496 10.561 88.9183 9.83576 88.4849 9.21229C88.0359 8.56638 87.4189 8.13857 86.7139 7.88625C85.9962 7.62938 84.852 7.53824 83.3963 7.53824H80.9646V30.5452H77.3755V4.18164H82.2561C85.422 4.18164 87.509 4.45605 88.658 4.93772C89.8115 5.42129 90.7537 6.21722 91.4721 7.35295C92.1829 8.47647 92.5652 9.83371 92.5652 11.4348C92.5652 13.1355 92.1578 14.4874 91.3861 15.5344C90.6039 16.5955 89.4135 17.4483 87.7439 18.0336L86.699 18.3999L93.2641 30.5452H89.4377Z" fill="black"/>
<path fill-rule="evenodd" clip-rule="evenodd" d="M100.278 30.5696L100.255 4.18164H104.057L117.804 24.9963V4.18164H121.393V30.5696H117.59L103.868 9.83316V30.5696H100.278Z" fill="black"/>
<path fill-rule="evenodd" clip-rule="evenodd" d="M162.891 5.31598C164.207 4.08401 165.851 3.47266 167.872 3.47266C169.165 3.47266 170.38 3.75636 171.532 4.3451L171.542 4.3499L171.551 4.35449C172.57 4.84679 173.64 5.70881 174.836 7.00432L172.266 9.23868C170.939 7.67466 169.445 6.73166 167.798 6.73166C166.906 6.73166 166.086 6.97608 165.439 7.50702C164.845 7.99396 164.399 8.67873 164.399 9.50593C164.399 10.2111 164.664 10.8737 165.094 11.4273L165.1 11.4356C165.62 12.0894 167.045 13.376 169.251 15.2094L169.256 15.2133C171.344 16.9256 172.574 17.9969 172.985 18.401C174.043 19.4426 174.733 20.4004 175.144 21.294L175.148 21.3019C175.552 22.1604 175.752 23.1181 175.752 24.1933C175.752 26.2613 175.034 27.9328 173.601 29.2577C172.169 30.5822 170.304 31.2757 167.872 31.2757C165.974 31.2757 164.398 30.8286 163.033 29.9403L163.03 29.9383C161.873 29.1916 160.807 28.0299 159.885 26.4212L162.887 24.6325C164.25 26.7405 165.928 28.041 167.996 28.041C169.122 28.041 170.144 27.7166 170.962 27.0114C171.774 26.3328 172.262 25.4508 172.262 24.4373C172.262 23.5522 171.917 22.7008 171.357 21.9469C170.803 21.2012 169.642 20.1542 167.995 18.8231L167.993 18.8219C164.864 16.3039 162.939 14.4569 162.112 13.2247C161.28 11.9851 160.909 10.799 160.909 9.67671C160.909 8.00767 161.553 6.56765 162.891 5.31598Z" fill="black"/>
<ellipse cx="141" cy="18.5" rx="4" ry="3.5" fill="white"/>
<path d="M141.697 36.1475C139.961 36.3427 138.697 35.6839 137.805 34.2201C137.111 33.0734 136.169 32.1219 134.93 31.5119C133.145 30.6336 132.129 30.7068 130.641 32.0487C129.873 32.7562 129.352 32.1219 128.931 31.7315C126.651 29.7065 125.362 27.1692 125.163 24.1438C125.064 22.4604 125.287 20.8014 125.634 19.1423C125.882 17.9713 125.882 16.7758 125.312 15.7267C123.627 12.6282 124.568 9.92004 126.551 7.40709C127.667 5.99203 129.005 4.33299 130.79 4.38178C132.6 4.43058 133.492 3.52787 134.707 2.69835C136.144 1.72245 137.731 0.795336 139.565 1.91763C140.011 2.186 140.209 1.82004 140.482 1.62485C142.589 0.160998 144.845 -0.0585805 147.224 0.819733C148.117 1.1369 149.009 1.38088 149.926 1.35648C151.24 1.33208 152.033 1.96642 152.554 3.08871C153.446 5.04052 154.066 7.08992 154.239 9.23691C154.363 10.8959 154.983 11.8475 156.767 12.3842C158.552 12.9209 159.519 14.5556 160.262 16.1902C160.585 16.9222 160.139 17.6053 159.593 18.0932C158.453 19.1179 158.032 20.3378 157.833 21.8261C157.585 23.6071 157.065 25.4125 155.454 26.6324C154.933 27.0228 154.735 27.6083 154.611 28.2183C153.421 34.9764 150.149 35.6595 145.514 35.8791C143.481 35.8791 142.192 36.0255 141.697 36.1475ZM137.086 12.5062C134.93 11.9938 133.665 13.3357 132.476 14.7264C131.484 15.8731 132.401 21.3381 133.665 22.1188C133.715 22.1432 133.765 22.192 133.789 22.192C136.095 22.314 136.987 24.217 138.251 25.6565C139.119 26.6568 140.11 27.3155 141.548 27.5107C143.903 27.8035 146.059 27.1448 148.216 26.5104C148.687 26.364 149.158 26.0957 149.505 25.7541C150.942 24.217 151.389 22.1188 152.207 20.289C152.702 19.2155 152.182 17.1905 151.339 15.8975C150.174 14.092 148.835 12.4086 147.398 10.8228C145.613 8.87094 142.168 8.89534 140.854 10.8228C139.788 12.189 138.648 12.7746 137.086 12.5062Z" fill="#FF0000"/>
<path d="M136.987 12.4081C138.648 12.6765 139.813 12.091 140.779 10.6759C142.118 8.69968 145.638 8.67528 147.447 10.6759C148.91 12.2861 150.273 14.0428 151.463 15.8482C152.33 17.1657 152.851 19.2151 152.355 20.3129C151.512 22.1672 151.041 24.3142 149.604 25.8756C149.282 26.2416 148.786 26.5099 148.29 26.6563C146.084 27.3151 143.903 27.9738 141.498 27.681C140.011 27.4858 139.02 26.8271 138.127 25.8024C136.838 24.3386 135.946 22.3867 133.591 22.2648C133.541 22.2648 133.492 22.216 133.467 22.1916C132.178 21.3864 131.236 15.8238 132.253 14.6527C133.442 13.262 134.756 11.8958 136.987 12.4081ZM140.631 16.1654C139.912 16.2385 139.193 16.2629 138.499 16.4337C137.929 16.5801 137.26 17.1901 137.706 17.6048C138.772 18.6051 139.02 20.1178 140.135 21.0449C141.498 22.1428 142.738 21.972 143.407 20.5569C143.977 19.3126 143.729 18.1172 143.085 16.9461C142.49 15.897 141.573 16.141 140.631 16.1654Z" fill="black"/>
</g>
<defs>
<clipPath id="clip0">
<rect width="176.611" height="35.8889" fill="white" transform="translate(0.333252 0.305664)"/>
</clipPath>
</defs>
</svg>
